<?xml version="1.0" standalone="no"?>
<!DOCTYPE svg PUBLIC "-//W3C//DTD SVG 20010904//EN"
 "http://www.w3.org/TR/2001/REC-SVG-20010904/DTD/svg10.dtd">
<svg version="1.0" xmlns="http://www.w3.org/2000/svg"
 width="300.000000pt" height="214.000000pt" viewBox="0 0 300.000000 214.000000"
 preserveAspectRatio="xMidYMid meet">
<metadata>
Created by potrace 1.10, written by Peter Selinger 2001-2011
</metadata>
<g transform="translate(0.000000,214.000000) scale(0.100000,-0.100000)"
fill="#008080" stroke="none">
<path d="M467 1972 c-11 -11 -20 -52 -27 -112 -6 -52 -17 -120 -25 -151 -8
-31 -15 -66 -15 -77 0 -33 37 -69 116 -113 l75 -41 -6 -62 c-3 -33 -17 -160
-30 -281 -21 -197 -20 -254 1 -233 3 4 16 109 30 235 38 365 33 335 56 328 74
-24 153 115 93 165 -23 19 -37 2 -19 -25 18 -28 12 -59 -20 -93 -17 -19 -27
-22 -55 -17 -49 9 -191 93 -203 121 -8 17 -6 42 9 101 l19 78 99 0 c92 0 100
-1 100 -19 0 -24 -107 -70 -123 -54 -18 18 -35 -2 -19 -20 8 -10 17 -25 20
-35 7 -20 27 -14 27 7 0 7 21 21 48 31 26 10 54 24 64 32 12 11 18 11 23 3 5
-8 19 -10 39 -6 17 4 56 8 86 9 l56 2 -3 -65 c-8 -156 -11 -170 -49 -186 -19
-8 -34 -19 -34 -24 0 -14 44 -12 59 3 11 10 12 -12 7 -123 -17 -391 -18 -437
-8 -444 6 -3 13 -3 15 1 3 5 8 82 12 173 3 91 10 255 15 365 6 110 10 266 10
347 0 139 -1 148 -22 168 -24 22 -68 26 -86 8 -9 -9 -15 -9 -24 0 -15 15 -74
16 -83 2 -4 -7 -14 -5 -28 5 -26 18 -59 19 -75 3 -9 -9 -15 -9 -24 0 -18 18
-82 15 -101 -6z m91 -78 l3 -62 -48 -4 c-26 -3 -49 -4 -49 -4 -4 2 17 120 22
128 3 5 20 8 37 6 32 -3 32 -4 35 -64z m100 54 c7 -7 12 -37 12 -68 l0 -56
-40 4 -40 4 0 52 c0 53 12 76 40 76 9 0 21 -5 28 -12z m115 -68 c9 -76 4 -107
-22 -115 -42 -13 -51 2 -51 89 0 46 3 86 7 90 4 4 19 6 33 4 23 -3 26 -8 33
-68z m96 56 c7 -9 11 -42 9 -88 l-3 -73 -31 -3 -32 -3 -7 76 c-5 54 -3 80 5
90 16 19 44 19 59 1z"/>
<path d="M1977 1973 c-9 -11 -21 -62 -31 -133 -9 -63 -22 -139 -28 -167 -11
-48 -10 -55 8 -80 12 -16 55 -48 97 -72 48 -27 77 -49 77 -60 0 -9 -14 -135
-29 -281 -26 -238 -27 -300 -5 -278 4 5 63 515 64 556 0 9 7 11 21 7 76 -24
154 115 93 166 -21 18 -28 4 -15 -30 10 -24 10 -34 -3 -58 -22 -44 -41 -56
-76 -48 -46 10 -188 93 -201 117 -12 22 -7 56 17 138 l15 51 97 -3 c88 -3 97
-5 97 -22 0 -25 -103 -70 -122 -54 -20 16 -37 -1 -20 -20 8 -10 17 -25 20 -35
7 -20 27 -14 27 8 0 7 23 21 51 31 27 10 55 24 60 31 8 9 15 9 30 0 13 -8 26
-9 46 -1 16 5 50 8 77 6 l49 -4 -6 -111 c-6 -117 -15 -137 -59 -137 -10 0 -18
-7 -18 -15 0 -17 45 -21 55 -5 3 6 11 10 16 10 6 0 8 -3 5 -8 -2 -4 -10 -130
-16 -280 -9 -199 -10 -276 -2 -284 18 -18 20 -1 32 267 20 452 24 749 11 772
-14 27 -74 41 -97 23 -11 -10 -18 -10 -26 -2 -15 15 -75 16 -83 2 -4 -7 -14
-5 -28 5 -26 18 -59 19 -75 3 -9 -9 -15 -9 -24 0 -18 18 -82 15 -101 -5z m91
-79 l3 -62 -48 -4 c-26 -3 -49 -4 -49 -4 -4 2 17 120 22 128 3 5 20 8 37 6 32
-3 32 -4 35 -64z m100 54 c7 -7 12 -38 12 -71 0 -50 -2 -58 -16 -53 -9 3 -27
6 -40 6 -22 0 -24 4 -24 53 0 54 12 77 40 77 9 0 21 -5 28 -12z m113 -33 c21
-97 2 -160 -45 -153 -19 3 -21 10 -24 82 -4 97 0 108 35 104 22 -2 29 -10 34
-33z m97 23 c7 -7 12 -41 12 -84 0 -71 -9 -93 -37 -88 -7 1 -17 2 -22 3 -13 2
-22 153 -9 168 13 16 40 17 56 1z"/>
<path d="M1221 1801 c-14 -14 -20 -41 -26 -105 -4 -47 -13 -110 -21 -138 -19
-73 -18 -121 5 -149 11 -13 53 -42 94 -64 68 -36 75 -42 71 -65 -5 -31 -54
-511 -54 -533 0 -10 6 -17 13 -17 10 0 18 43 31 168 10 92 23 219 29 282 l12
115 33 -3 c56 -6 114 71 98 131 -11 40 -24 53 -38 39 -9 -9 -9 -15 0 -24 19
-19 14 -63 -10 -93 -18 -23 -27 -26 -58 -22 -55 7 -199 93 -206 123 -7 27 12
137 28 167 8 15 21 17 101 15 85 -3 92 -5 95 -24 2 -17 -7 -25 -54 -43 -41
-15 -60 -18 -69 -11 -21 18 -26 -5 -9 -39 17 -35 34 -41 34 -12 0 11 9 21 23
25 13 3 41 13 63 22 45 20 101 26 201 22 l33 -2 -6 -95 c-7 -134 -9 -141 -44
-148 -21 -4 -30 -11 -30 -24 0 -23 6 -23 44 -4 l28 15 -5 -33 c-5 -26 -20
-386 -22 -511 0 -36 21 -46 28 -14 3 13 6 70 7 128 1 58 7 224 14 370 16 338
14 516 -6 536 -13 13 -30 16 -93 14 -11 -1 -35 2 -53 6 -19 4 -38 2 -46 -6
-12 -9 -20 -8 -41 6 -23 15 -32 16 -58 6 -21 -8 -35 -8 -41 -2 -17 17 -75 11
-95 -9z m88 -24 c6 -8 8 -33 4 -64 l-6 -51 -44 -4 -44 -3 6 45 c11 86 13 90
44 90 16 0 33 -6 40 -13z m99 1 c7 -7 12 -37 12 -68 l0 -56 -41 4 -41 4 6 56
c8 67 33 91 64 60z m116 -14 c3 -9 6 -49 6 -90 0 -70 -1 -74 -25 -80 -43 -11
-55 10 -55 90 0 43 5 77 12 84 17 17 55 15 62 -4z m104 1 c2 -2 4 -38 5 -80 2
-64 -1 -80 -15 -89 -13 -8 -23 -8 -35 0 -22 14 -31 147 -12 170 10 12 43 11
57 -1z"/>
<path d="M2750 1525 c-10 -53 -10 -71 2 -102 9 -25 11 -55 7 -88 -3 -27 -7
-37 -7 -22 -1 15 -8 40 -16 55 -17 33 -64 78 -72 69 -3 -3 0 -32 6 -63 9 -44
20 -66 45 -89 l33 -30 -16 -85 c-16 -85 -16 -85 -22 -40 -3 25 -18 62 -32 83
l-27 38 -7 -36 c-9 -49 1 -92 32 -132 25 -33 26 -37 14 -81 -19 -70 -29 -84
-30 -41 0 20 -7 54 -16 75 l-17 39 -13 -35 c-18 -49 -17 -105 2 -142 16 -30
15 -34 -12 -90 -30 -63 -52 -81 -28 -22 16 38 11 134 -7 134 -4 0 -20 -21 -35
-46 -27 -46 -33 -91 -21 -154 6 -31 2 -43 -30 -88 -42 -57 -66 -71 -34 -18 12
18 21 49 21 67 0 49 -11 109 -20 109 -5 0 -20 -23 -34 -52 -28 -55 -32 -102
-16 -158 11 -38 11 -39 -85 -117 -21 -18 -36 -35 -33 -39 8 -7 58 26 100 64
21 19 41 26 80 29 93 5 138 27 179 85 l20 27 -38 -6 c-73 -10 -112 -24 -143
-49 -45 -38 -36 -20 22 47 45 50 57 59 87 59 73 0 143 37 171 91 8 15 4 15
-38 7 -73 -13 -85 -18 -121 -52 -40 -37 -38 -29 14 52 30 46 49 64 75 73 55
18 91 48 111 93 10 22 17 42 15 43 -7 8 -99 -52 -113 -73 -8 -13 -20 -24 -25
-24 -6 0 -3 10 5 23 8 13 21 43 28 66 9 31 23 50 48 66 54 34 79 65 89 112
l10 43 -28 -20 c-33 -23 -80 -77 -80 -91 0 -5 -4 -9 -10 -9 -5 0 -3 19 5 41 8
23 15 54 15 69 0 18 8 33 24 43 37 25 67 81 70 134 l3 47 -43 -49 -43 -49 6
40 c3 21 9 46 13 54 19 38 21 98 5 138 -10 23 -21 42 -25 42 -4 0 -13 -29 -20
-65z m50 -235 c-6 -11 -15 -20 -20 -20 -16 0 -11 18 8 29 24 14 24 14 12 -9z
m-248 -490 c-2 -16 -8 -28 -12 -25 -9 5 -1 55 9 55 4 0 6 -13 3 -30z m-1 -83
c-8 -8 -11 -3 -11 19 1 25 2 27 11 11 8 -14 8 -22 0 -30z m-120 -84 c-9 -15
-10 -13 -11 14 0 17 3 40 8 50 5 14 8 11 10 -14 2 -18 -1 -41 -7 -50z m129
-63 c-8 -5 -22 -9 -30 -9 -10 0 -8 3 5 9 27 12 43 12 25 0z"/>
<path d="M140 1428 c5 -13 25 -84 44 -158 19 -74 43 -160 53 -190 18 -55 18
-55 -4 -110 -29 -70 -29 -129 -1 -183 l21 -42 15 35 c9 19 16 61 16 92 1 32 4
58 9 58 4 0 7 -6 7 -12 0 -7 13 -40 28 -72 l28 -59 -18 -51 c-9 -28 -17 -70
-18 -94 0 -40 28 -114 49 -126 5 -3 15 25 21 63 12 65 11 102 -4 146 -7 19 -6
19 6 1 7 -10 29 -41 49 -68 30 -40 38 -61 43 -115 9 -82 28 -124 72 -158 32
-25 34 -25 34 -6 0 47 -24 128 -48 158 -35 48 -18 40 46 -18 53 -48 56 -53 58
-105 2 -30 8 -64 15 -76 13 -26 69 -88 79 -88 4 0 3 26 -2 57 -8 53 -43 123
-60 123 -5 0 -8 5 -8 11 0 6 15 0 33 -15 17 -14 48 -35 68 -47 26 -15 38 -31
47 -62 15 -54 47 -93 96 -112 21 -9 36 -12 34 -8 -30 64 -55 104 -75 114 -46
25 -22 28 30 4 28 -14 59 -25 67 -25 9 0 24 -15 34 -34 27 -50 69 -86 110 -96
20 -4 36 -5 36 -1 0 16 -65 83 -98 102 -21 11 -28 17 -17 14 11 -4 47 -13 79
-20 42 -10 69 -24 95 -48 48 -46 72 -57 121 -57 l41 0 -33 28 c-18 16 -42 34
-53 40 -18 10 -17 11 13 12 18 0 47 -6 65 -13 60 -25 103 -29 146 -11 23 9 41
20 41 24 0 4 -28 13 -61 20 -48 10 -71 11 -108 2 -52 -14 -141 -14 -141 -1 0
5 17 9 39 9 37 0 62 14 115 62 19 17 19 18 -21 18 -54 0 -91 -14 -128 -50
l-30 -29 -78 13 c-90 16 -109 26 -48 26 28 0 54 8 82 27 l41 27 -28 8 c-42 12
-91 2 -135 -26 l-38 -26 -66 17 c-64 17 -94 41 -34 28 29 -7 119 13 119 25 0
11 -67 30 -106 30 -21 0 -52 -7 -68 -15 -27 -14 -32 -13 -87 17 -33 18 -55 34
-50 36 6 2 19 -2 30 -8 20 -10 141 -12 141 -2 0 8 -32 31 -74 53 -33 18 -51
20 -105 16 -62 -5 -68 -3 -106 26 -55 42 -64 52 -40 42 84 -33 91 -34 146 -21
l54 12 -35 22 c-59 38 -105 47 -163 35 l-52 -12 -38 42 c-20 23 -42 51 -48 61
-10 17 -9 17 16 -2 15 -12 46 -27 69 -33 22 -5 49 -13 60 -16 15 -4 13 3 -13
40 -40 59 -76 84 -139 97 -32 7 -52 17 -55 28 -3 9 -16 43 -31 75 -14 31 -21
57 -16 57 6 0 10 -5 10 -12 0 -24 54 -80 102 -104 27 -14 52 -24 54 -21 2 2
-11 33 -28 68 -34 65 -78 105 -128 116 -24 4 -27 13 -43 91 -64 315 -56 291
-103 323 -51 35 -56 36 -44 7z m57 -80 c-3 -8 -6 -5 -6 6 -1 11 2 17 5 13 3
-3 4 -12 1 -19z m102 -361 c8 -11 5 -19 -14 -37 -19 -18 -25 -34 -25 -66 0
-24 -4 -46 -10 -49 -16 -10 -12 66 6 118 17 49 24 56 43 34z m115 -72 c10 -15
16 -29 13 -31 -7 -7 -66 45 -78 68 -10 18 -9 19 19 4 16 -8 37 -27 46 -41z
m37 -157 c34 -12 65 -35 57 -43 -2 -3 -21 5 -42 16 -20 11 -42 19 -49 18 -24
-3 -37 1 -37 11 0 13 29 13 71 -2z m-81 -108 c0 -33 -4 -60 -10 -60 -11 0 -14
103 -3 113 12 12 13 8 13 -53z m280 -60 c24 -8 24 -8 -5 -9 -16 0 -37 4 -45 9
-12 8 -11 10 5 9 11 -1 31 -5 45 -9z m-101 -135 c0 -20 0 -20 -14 -1 -8 11
-15 31 -15 45 l1 26 14 -25 c8 -14 14 -34 14 -45z m156 15 c3 -5 1 -10 -4 -10
-6 0 -11 5 -11 10 0 6 2 10 4 10 3 0 8 -4 11 -10z m80 0 c20 -9 20 -9 0 -9
-11 0 -27 4 -35 9 -13 9 -13 10 0 9 8 0 24 -4 35 -9z m475 -255 c7 -8 8 -15 2
-15 -5 0 -15 7 -22 15 -7 8 -8 15 -2 15 5 0 15 -7 22 -15z"/>
<path d="M666 1392 c-12 -11 -5 -23 20 -32 23 -9 25 -14 20 -48 -3 -20 -8 -90
-12 -154 -6 -105 -5 -118 10 -118 12 0 16 10 17 43 0 23 4 92 9 152 7 87 6
114 -5 131 -14 21 -49 37 -59 26z"/>
<path d="M2176 1392 c-12 -11 -5 -23 20 -32 21 -8 25 -15 20 -38 -3 -15 -8
-84 -12 -154 -5 -94 -3 -128 5 -128 17 0 19 11 29 165 8 111 7 144 -4 161 -13
21 -48 37 -58 26z"/>
<path d="M1410 1210 c0 -6 12 -15 26 -20 l26 -10 -7 -113 c-3 -61 -8 -131 -11
-154 -4 -34 -2 -43 10 -43 19 0 23 27 31 186 7 130 6 132 -16 148 -26 18 -59
21 -59 6z"/>
<path d="M2316 589 c-53 -39 -87 -89 -93 -138 -6 -41 -8 -43 -84 -82 -44 -21
-79 -35 -79 -29 0 6 8 13 18 17 41 15 76 49 98 97 13 27 22 52 20 54 -2 2 -27
-6 -55 -19 -60 -25 -105 -73 -121 -126 l-12 -38 -184 -40 -185 -40 -29 -44
c-16 -25 -28 -46 -27 -48 4 -3 298 82 363 106 51 18 58 18 91 4 20 -8 59 -19
87 -23 44 -7 59 -5 106 17 l55 25 -39 14 c-47 17 -112 22 -143 11 -13 -5 -23
-4 -23 1 0 5 19 14 43 21 23 7 58 22 78 33 36 20 38 20 89 3 69 -23 145 -17
191 15 l33 24 -44 14 c-53 16 -187 8 -201 -11 -3 -4 -11 -2 -16 5 -14 17 7 83
36 112 27 26 27 7 0 -38 -26 -45 -8 -47 24 -3 20 25 52 125 44 134 -1 1 -20
-12 -41 -28z m-185 -157 c-6 -11 -26 -31 -47 -47 -35 -27 -36 -27 -24 -4 12
25 59 69 73 69 4 0 3 -8 -2 -18z m279 -42 c11 -7 4 -10 -27 -10 -23 0 -45 5
-48 10 -8 13 55 13 75 0z m-270 -109 c53 -8 54 -9 14 -10 -40 -1 -101 14 -118
30 -5 4 -5 16 -2 26 7 16 10 15 29 -9 17 -21 36 -30 77 -37z"/>
</g>
</svg>
